<svg width="19" height="22" viewBox="0 0 19 22" fill="none" xmlns="http://www.w3.org/2000/svg">
<path d="M18.3426 17.1447C18.0099 17.9133 17.6161 18.6208 17.1598 19.2713C16.5378 20.158 16.0286 20.7719 15.6361 21.1127C15.0277 21.6722 14.3759 21.9587 13.6779 21.975C13.1768 21.975 12.5725 21.8324 11.8691 21.5432C11.1633 21.2553 10.5148 21.1127 9.92174 21.1127C9.29978 21.1127 8.63274 21.2553 7.91926 21.5432C7.20469 21.8324 6.62904 21.9832 6.18892 21.9981C5.51957 22.0266 4.85239 21.7319 4.18644 21.1127C3.76139 20.742 3.22974 20.1064 2.59285 19.2061C1.90951 18.2446 1.34772 17.1297 0.907595 15.8587C0.43624 14.4857 0.199951 13.1563 0.199951 11.8692C0.199951 10.3948 0.518534 9.12321 1.15665 8.0576C1.65815 7.20166 2.32533 6.52647 3.16035 6.03081C3.99537 5.53514 4.89761 5.28256 5.86925 5.2664C6.4009 5.2664 7.09809 5.43085 7.96448 5.75405C8.82843 6.07834 9.38316 6.24279 9.62638 6.24279C9.80821 6.24279 10.4245 6.0505 11.4692 5.66714C12.4571 5.31162 13.2909 5.16441 13.974 5.2224C15.8249 5.37178 17.2155 6.10142 18.1402 7.41595C16.4849 8.41896 15.666 9.82379 15.6823 11.626C15.6972 13.0297 16.2065 14.1979 17.2073 15.1254C17.6609 15.5558 18.1674 15.8885 18.731 16.1248C18.6087 16.4793 18.4797 16.8188 18.3426 17.1447ZM14.0975 0.440125C14.0975 1.54038 13.6956 2.56768 12.8944 3.51854C11.9275 4.64892 10.758 5.30211 9.48976 5.19904C9.4736 5.06705 9.46423 4.92812 9.46423 4.78214C9.46423 3.7259 9.92404 2.59552 10.7406 1.67127C11.1483 1.20331 11.6667 0.814209 12.2955 0.503814C12.9229 0.19805 13.5163 0.0289566 14.0744 0C14.0907 0.147086 14.0975 0.294182 14.0975 0.440111V0.440125Z" fill="black"/>
</svg>
